<?xml version="1.0" encoding="utf-8"?>
<!-- Generator: Adobe Illustrator 21.1.0, SVG Export Plug-In . SVG Version: 6.00 Build 0)  -->
<svg version="1.1" id="Layer_1" xmlns="http://www.w3.org/2000/svg" xmlns:xlink="http://www.w3.org/1999/xlink" x="0px" y="0px"
	 viewBox="0 0 1382.1 1382.1" style="enable-background:new 0 0 1382.1 1382.1;" xml:space="preserve">
<style type="text/css">
	.st0{fill:#FFFFFF;}
	.st1{fill:#2A2A2A;}
	.st2{fill:#F22761;}
</style>
<g>
	<path class="st0" d="M734.9,647.1h34.4h0h49.5h8.9v0h10.3h55.2h6.2c90.8,0,164.7-73.9,164.7-164.7s-73.9-164.7-164.7-164.7h-49.2
		h-22.6h-24.8v0H673.4c38.2,44.3,61.5,101.7,61.5,164.7V647.1z"/>
	<path class="st0" d="M0,0v1382.1h1382.1V0H0z M1152.1,899.6c0,139.2-113.3,252.5-252.5,252.5h-54.1v0H734.9v0h-69.5h-18.4V734.9
		h87.8v329.3v0h92.8v0h71.8c90.8,0,164.7-73.9,164.7-164.7c0-90.8-73.9-164.7-164.7-164.7h-6.2H843v0h-24.1h-49.5h0h-95.1H462.4
		H317.8v0v417.1H230V482.5C230,343.3,343.3,230,482.5,230h0h257.6v0h87.7h22.6h49.2c139.2,0,252.5,113.3,252.5,252.5
		c0,86.5-43.8,163.1-110.4,208.6C1108.3,736.5,1152.1,813,1152.1,899.6z"/>
	<path class="st0" d="M647.1,647.1V482.5c0-90.8-73.9-164.7-164.7-164.7c-90.8,0-164.7,73.9-164.7,164.7v164.7h144.6H647.1z"/>
	<polygon class="st1" points="734.9,1064.2 734.9,734.9 647.1,734.9 647.1,1152.1 665.5,1152.1 734.9,1152.1 734.9,1152.1 
		734.9,1064.2 	"/>
	<path class="st1" d="M317.8,647.1V482.5c0-90.8,73.9-164.7,164.7-164.7c90.8,0,164.7,73.9,164.7,164.7v164.7h27.2h60.6V482.5
		c0-62.9-23.3-120.4-61.5-164.7c-46.3-53.7-114.7-87.8-191-87.8h0C343.3,230,230,343.3,230,482.5v669.6h87.8V734.9v0V647.1
		L317.8,647.1z"/>
	<path class="st2" d="M1152.1,482.5c0-139.2-113.3-252.5-252.5-252.5h-49.2h-22.6h-87.7v0H482.5c76.3,0,144.6,34.2,191,87.8h129.5v0
		h24.8h22.6h49.2c90.8,0,164.7,73.9,164.7,164.7s-73.9,164.7-164.7,164.7h-6.2h-55.2h-10.3v0h-8.9h-49.5h0h-34.4v0h-87.8H317.8v87.8
		h144.6h211.9h95.1h0h49.5H843v0h50.4h6.2c90.8,0,164.7,73.9,164.7,164.7c0,90.8-73.9,164.7-164.7,164.7h-71.8v0h-92.8v87.8h110.5v0
		h54.1c139.2,0,252.5-113.3,252.5-252.5c0-86.5-43.8-163.1-110.4-208.6C1108.3,645.5,1152.1,569,1152.1,482.5z"/>
	<polygon class="st2" points="462.4,647.1 317.8,647.1 317.8,647.1 647.1,647.1 647.1,647.1 	"/>
	<polygon class="st2" points="647.1,647.1 647.1,647.1 734.9,647.1 734.9,647.1 674.3,647.1 	"/>
</g>
</svg>
