<?xml version="1.0" encoding="utf-8"?>
<!-- Generator: Adobe Illustrator 21.1.0, SVG Export Plug-In . SVG Version: 6.00 Build 0)  -->
<svg version="1.1" id="Layer_1" xmlns="http://www.w3.org/2000/svg" xmlns:xlink="http://www.w3.org/1999/xlink" x="0px" y="0px"
	 viewBox="0 0 100 100" style="enable-background:new 0 0 100 100;" xml:space="preserve">
<style type="text/css">
	.st0{fill:#FFFFFF;}
	.st1{fill:none;}
	.st2{fill:#2A2A2A;}
	.st3{fill:#F22761;}
</style>
<g>
	<rect y="0" class="st0" width="100" height="100"/>
	<g>
		<path class="st1" d="M34.9,23C28.3,23,23,28.3,23,34.9v11.9h23.8V34.9C46.8,28.3,41.5,23,34.9,23z"/>
		<polygon class="st2" points="46.8,53.2 46.8,83.4 48.2,83.4 53.2,83.4 53.2,77 53.2,53.2 		"/>
		<path class="st2" d="M48.7,23c-3.4-3.9-8.3-6.4-13.8-6.4h0c-10.1,0-18.3,8.2-18.3,18.3v48.4H23V53.2v-6.4V34.9
			C23,28.3,28.3,23,34.9,23c6.6,0,11.9,5.3,11.9,11.9v11.9h6.4V34.9C53.2,30.4,51.5,26.2,48.7,23z"/>
		<path class="st3" d="M75.4,50c4.8-3.3,8-8.8,8-15.1c0-10.1-8.2-18.3-18.3-18.3h-3.6h-1.6h-6.3v0H34.9c5.5,0,10.5,2.5,13.8,6.4h9.4
			v0h1.8h1.6h3.6C71.7,23,77,28.3,77,34.9c0,6.6-5.3,11.9-11.9,11.9h-0.5h-4h-0.7v0h-0.6h-3.6h0h-6.9H33.5H23v6.4h10.5h15.3h6.9h0
			h3.6H61v0h3.6h0.5c6.6,0,11.9,5.3,11.9,11.9C77,71.7,71.7,77,65.1,77h-5.2v0h-6.7v6.4h8v0h3.9c10.1,0,18.3-8.2,18.3-18.3
			C83.4,58.8,80.2,53.3,75.4,50z"/>
	</g>
</g>
</svg>
