<svg id="Layer_1" xmlns="http://www.w3.org/2000/svg" viewBox="0 0 142.6 31.1"><style>.st0{fill:#fff}</style><path class="st0" d="M0 29.9h4.7V.7H0V.1h9.1c.4 0 .8 0 1.2-.1H15c.7 0 1.3.1 1.9.1s1.1.2 1.7.3c.5.1 1.1.3 1.7.5 1.7.6 3.2 1.3 4.5 2.3 1.3 1 2.3 2.1 3.1 3.3.8 1.3 1.4 2.6 1.8 4.1s.6 3 .6 4.7c0 1.9-.2 3.6-.7 5.1-.5 1.5-1.1 2.8-1.9 4-.8 1.2-1.7 2.1-2.8 3-1.1.8-2.2 1.5-3.4 2-.7.3-1.3.6-1.9.7-.6.2-1.2.3-1.9.4-.6.1-1.3.1-2.1.2h-4c-.5 0-1 0-1.5-.1-.5 0-1-.1-1.4-.1H0v-.6zm9 0c.5.1 1 .1 1.7.1h2.1c1 0 1.9 0 2.9-.1s1.9-.3 2.7-.6c.9-.3 1.7-.8 2.4-1.4.8-.6 1.4-1.4 2-2.4.9-1.5 1.5-3.1 1.9-4.7.4-1.6.5-3.4.5-5.3 0-2.2-.2-4.3-.6-6.1-.4-1.8-1.1-3.4-2.1-4.7-1-1.3-2.3-2.3-3.9-3C17 1 15 .6 12.6.6h-1.9c-.6 0-1.1.1-1.7.1v29.2zM34.9 29.9h4.7V.7h-4.7V.1h13.8v.6H44v29.2h4.7v.6H34.9v-.6zM51 29.9h4.7V.7H51V.1h9.1l14.4 23.3h.1V.7h-4.7V.1H80v.6h-4.7v30.4h-.9l-18-28.7h-.1v27.5H61v.6H51v-.6zM81.8 29.9h4.7V.7h-4.7V.1H91l14.4 23.3h.1V.7h-4.7V.1h10.1v.6h-4.7v30.4h-.9l-18-28.7h-.1v27.5H92v.6H81.8v-.6zM113.1 29.9h4.7V.7h-4.7V.1h9.1c.3 0 .7 0 1-.1h2c1.7 0 3.2.1 4.4.3 1.3.2 2.5.7 3.6 1.6 1 .8 1.7 1.6 2.1 2.6.4 1 .6 1.9.6 2.7 0 .4-.1 1-.2 1.6-.2.7-.5 1.4-1 2-.5.7-1.3 1.3-2.3 1.9-1 .6-2.3 1-4 1.2v.1c.5.1 1.1.2 1.9.3.8.2 1.6.4 2.4.8.8.4 1.6.9 2.2 1.5.7.6 1.2 1.4 1.5 2.4.2.6.3 1.2.4 1.9s.1 1.5.2 2.2c0 .8.1 1.5.1 2.2 0 .7.1 1.3.2 1.8.2.7.4 1.4.8 2s1 .9 1.8.9c.4 0 .8-.1 1.2-.2.4-.1.8-.4 1.1-.7l.4.5c-.1.1-.3.2-.5.4s-.4.3-.7.4c-.3.1-.6.2-1 .3-.4.1-.9.1-1.5.1-1.1 0-2.1-.1-2.8-.4-.8-.3-1.4-.7-1.8-1.3-.5-.6-.8-1.2-1-2-.2-.8-.4-1.8-.4-2.8l-.3-3.9c-.1-1.4-.4-2.5-.9-3.3-.5-.8-1-1.4-1.6-1.8-.6-.4-1.2-.6-1.9-.7-.7-.1-1.2-.1-1.7-.1h-4.3v15.4h4.7v.6h-13.8v-.6zm9-16h3.9c.8 0 1.5-.1 2.2-.3.7-.2 1.2-.5 1.7-1s.8-1.2 1.1-2c.3-.9.4-1.9.4-3.2 0-1.5-.2-2.7-.6-3.6-.4-.9-.9-1.6-1.5-2-.6-.5-1.3-.8-2.1-.9s-1.5-.2-2.2-.2h-1.6c-.5 0-1 0-1.3.1v13.1z"/></svg>