<?xml version="1.0" encoding="utf-8"?>
<!-- Generator: Adobe Illustrator 21.1.0, SVG Export Plug-In . SVG Version: 6.00 Build 0)  -->
<svg version="1.1" id="Layer_1" xmlns="http://www.w3.org/2000/svg" xmlns:xlink="http://www.w3.org/1999/xlink" x="0px" y="0px"
	 viewBox="0 0 62.4 62.4" style="enable-background:new 0 0 62.4 62.4;" xml:space="preserve">
<style type="text/css">
	.st0{fill:none;}
	.st1{fill:#FFFFFF;}
	.st2{fill:#F22761;}
</style>
<g>
	<path class="st0" d="M17.1,5.9c-6.1,0-11.1,5-11.1,11.1v11.1h22.3V17.1C28.2,10.9,23.2,5.9,17.1,5.9z"/>
	<polygon class="st1" points="28.2,34.2 28.2,62.4 29.5,62.4 34.2,62.4 34.2,56.4 34.2,34.2 	"/>
	<path class="st1" d="M30,5.9C26.9,2.3,22.2,0,17.1,0h0C7.7,0,0,7.7,0,17.1v45.3h5.9V34.2v-5.9V17.1c0-6.1,5-11.1,11.1-11.1
		c6.1,0,11.1,5,11.1,11.1v11.1h5.9V17.1C34.2,12.8,32.6,8.9,30,5.9z"/>
	<path class="st2" d="M54.9,31.2c4.5-3.1,7.5-8.3,7.5-14.1C62.4,7.7,54.7,0,45.3,0H42h-1.5h-5.9v0H17.1c5.2,0,9.8,2.3,12.9,5.9h8.8
		v0h1.7H42h3.3c6.1,0,11.1,5,11.1,11.1c0,6.1-5,11.1-11.1,11.1h-0.4h-3.7h-0.7v0h-0.6h-3.3h0H30H15.7H5.9v5.9h9.8H30h6.4h0h3.3h1.6
		v0h3.4h0.4c6.1,0,11.1,5,11.1,11.1c0,6.1-5,11.1-11.1,11.1h-4.9v0h-6.3v5.9h7.5v0h3.7c9.4,0,17.1-7.7,17.1-17.1
		C62.4,39.4,59.4,34.3,54.9,31.2z"/>
</g>
</svg>
